<mxfile host="app.diagrams.net" modified="2024-03-19T01:45:22.540Z" agent="Mozilla/5.0 (Windows NT 10.0; Win64; x64) AppleWebKit/537.36 (KHTML, like Gecko) Chrome/122.0.0.0 Safari/537.36" etag="fV0G_21fPgTXOkibLNrg" version="24.0.7" type="device">
  <diagram name="Page-1" id="pe8ZQUvVPvgCWQOouP43">
    <mxGraphModel dx="950" dy="4617" grid="1" gridSize="10" guides="1" tooltips="1" connect="1" arrows="1" fold="1" page="1" pageScale="1" pageWidth="850" pageHeight="1100" math="0" shadow="0">
      <root>
        <mxCell id="0" />
        <mxCell id="1" parent="0" />
        <mxCell id="1F8Fvpi4FppRuJuh_mjd-1" style="edgeStyle=orthogonalEdgeStyle;rounded=0;orthogonalLoop=1;jettySize=auto;html=1;exitX=1;exitY=0.5;exitDx=0;exitDy=0;entryX=0;entryY=0.5;entryDx=0;entryDy=0;" edge="1" parent="1" source="1F8Fvpi4FppRuJuh_mjd-2" target="1F8Fvpi4FppRuJuh_mjd-5">
          <mxGeometry relative="1" as="geometry" />
        </mxCell>
        <mxCell id="1F8Fvpi4FppRuJuh_mjd-2" value="&lt;font style=&quot;font-size: 12px;&quot;&gt;CryptoTraderApplication&lt;/font&gt;" style="ellipse;whiteSpace=wrap;html=1;" vertex="1" parent="1">
          <mxGeometry x="2600" y="-900" width="160" height="120" as="geometry" />
        </mxCell>
        <mxCell id="1F8Fvpi4FppRuJuh_mjd-3" style="edgeStyle=orthogonalEdgeStyle;rounded=0;orthogonalLoop=1;jettySize=auto;html=1;exitX=1;exitY=0.5;exitDx=0;exitDy=0;" edge="1" parent="1" source="1F8Fvpi4FppRuJuh_mjd-5" target="1F8Fvpi4FppRuJuh_mjd-7">
          <mxGeometry relative="1" as="geometry" />
        </mxCell>
        <mxCell id="1F8Fvpi4FppRuJuh_mjd-4" style="edgeStyle=orthogonalEdgeStyle;rounded=0;orthogonalLoop=1;jettySize=auto;html=1;exitX=1;exitY=0.5;exitDx=0;exitDy=0;entryX=0.5;entryY=0;entryDx=0;entryDy=0;" edge="1" parent="1" source="1F8Fvpi4FppRuJuh_mjd-5" target="1F8Fvpi4FppRuJuh_mjd-72">
          <mxGeometry relative="1" as="geometry" />
        </mxCell>
        <mxCell id="1F8Fvpi4FppRuJuh_mjd-5" value="CryptoTraderController" style="ellipse;whiteSpace=wrap;html=1;" vertex="1" parent="1">
          <mxGeometry x="2840" y="-900" width="160" height="120" as="geometry" />
        </mxCell>
        <mxCell id="1F8Fvpi4FppRuJuh_mjd-6" style="edgeStyle=orthogonalEdgeStyle;rounded=0;orthogonalLoop=1;jettySize=auto;html=1;exitX=1;exitY=0.5;exitDx=0;exitDy=0;entryX=0;entryY=0.5;entryDx=0;entryDy=0;" edge="1" parent="1" source="1F8Fvpi4FppRuJuh_mjd-7" target="1F8Fvpi4FppRuJuh_mjd-9">
          <mxGeometry relative="1" as="geometry" />
        </mxCell>
        <mxCell id="1F8Fvpi4FppRuJuh_mjd-208" style="edgeStyle=orthogonalEdgeStyle;rounded=0;orthogonalLoop=1;jettySize=auto;html=1;exitX=0.5;exitY=1;exitDx=0;exitDy=0;entryX=0;entryY=0.5;entryDx=0;entryDy=0;" edge="1" parent="1" source="1F8Fvpi4FppRuJuh_mjd-7" target="1F8Fvpi4FppRuJuh_mjd-78">
          <mxGeometry relative="1" as="geometry" />
        </mxCell>
        <mxCell id="1F8Fvpi4FppRuJuh_mjd-7" value="CryptoTraderService" style="ellipse;whiteSpace=wrap;html=1;" vertex="1" parent="1">
          <mxGeometry x="3160" y="-900" width="160" height="120" as="geometry" />
        </mxCell>
        <mxCell id="1F8Fvpi4FppRuJuh_mjd-8" style="edgeStyle=orthogonalEdgeStyle;rounded=0;orthogonalLoop=1;jettySize=auto;html=1;exitX=0.5;exitY=0;exitDx=0;exitDy=0;entryX=0;entryY=0.5;entryDx=0;entryDy=0;" edge="1" parent="1" source="1F8Fvpi4FppRuJuh_mjd-9" target="1F8Fvpi4FppRuJuh_mjd-61">
          <mxGeometry relative="1" as="geometry" />
        </mxCell>
        <mxCell id="1F8Fvpi4FppRuJuh_mjd-9" value="UserRepository" style="ellipse;whiteSpace=wrap;html=1;" vertex="1" parent="1">
          <mxGeometry x="3400" y="-900" width="160" height="120" as="geometry" />
        </mxCell>
        <mxCell id="1F8Fvpi4FppRuJuh_mjd-25" style="edgeStyle=orthogonalEdgeStyle;rounded=0;orthogonalLoop=1;jettySize=auto;html=1;exitX=0.5;exitY=0;exitDx=0;exitDy=0;entryX=0.5;entryY=1;entryDx=0;entryDy=0;" edge="1" parent="1" source="1F8Fvpi4FppRuJuh_mjd-27" target="1F8Fvpi4FppRuJuh_mjd-62">
          <mxGeometry relative="1" as="geometry" />
        </mxCell>
        <mxCell id="1F8Fvpi4FppRuJuh_mjd-26" style="edgeStyle=orthogonalEdgeStyle;rounded=0;orthogonalLoop=1;jettySize=auto;html=1;exitX=0.5;exitY=0;exitDx=0;exitDy=0;entryX=0.5;entryY=1;entryDx=0;entryDy=0;" edge="1" parent="1" source="1F8Fvpi4FppRuJuh_mjd-27" target="1F8Fvpi4FppRuJuh_mjd-63">
          <mxGeometry relative="1" as="geometry" />
        </mxCell>
        <mxCell id="1F8Fvpi4FppRuJuh_mjd-210" style="edgeStyle=orthogonalEdgeStyle;rounded=0;orthogonalLoop=1;jettySize=auto;html=1;exitX=1;exitY=0.5;exitDx=0;exitDy=0;entryX=0;entryY=0.5;entryDx=0;entryDy=0;" edge="1" parent="1" source="1F8Fvpi4FppRuJuh_mjd-27" target="1F8Fvpi4FppRuJuh_mjd-86">
          <mxGeometry relative="1" as="geometry" />
        </mxCell>
        <mxCell id="1F8Fvpi4FppRuJuh_mjd-27" value="PortfolioRepository" style="ellipse;whiteSpace=wrap;html=1;" vertex="1" parent="1">
          <mxGeometry x="3640" y="-700" width="160" height="120" as="geometry" />
        </mxCell>
        <mxCell id="1F8Fvpi4FppRuJuh_mjd-116" style="edgeStyle=orthogonalEdgeStyle;rounded=0;orthogonalLoop=1;jettySize=auto;html=1;exitX=1;exitY=0.5;exitDx=0;exitDy=0;" edge="1" parent="1" source="1F8Fvpi4FppRuJuh_mjd-29" target="1F8Fvpi4FppRuJuh_mjd-115">
          <mxGeometry relative="1" as="geometry" />
        </mxCell>
        <mxCell id="1F8Fvpi4FppRuJuh_mjd-29" value="CryptoTrader" style="ellipse;whiteSpace=wrap;html=1;" vertex="1" parent="1">
          <mxGeometry x="3600" y="-440" width="160" height="120" as="geometry" />
        </mxCell>
        <mxCell id="1F8Fvpi4FppRuJuh_mjd-158" style="edgeStyle=orthogonalEdgeStyle;rounded=0;orthogonalLoop=1;jettySize=auto;html=1;exitX=1;exitY=0.5;exitDx=0;exitDy=0;entryX=0;entryY=0.5;entryDx=0;entryDy=0;" edge="1" parent="1" source="1F8Fvpi4FppRuJuh_mjd-41" target="1F8Fvpi4FppRuJuh_mjd-157">
          <mxGeometry relative="1" as="geometry" />
        </mxCell>
        <mxCell id="1F8Fvpi4FppRuJuh_mjd-41" value="Currency" style="ellipse;whiteSpace=wrap;html=1;" vertex="1" parent="1">
          <mxGeometry x="3660" y="-40" width="160" height="120" as="geometry" />
        </mxCell>
        <mxCell id="1F8Fvpi4FppRuJuh_mjd-186" style="edgeStyle=orthogonalEdgeStyle;rounded=0;orthogonalLoop=1;jettySize=auto;html=1;exitX=0.75;exitY=0;exitDx=0;exitDy=0;entryX=1;entryY=1;entryDx=0;entryDy=0;" edge="1" parent="1" source="1F8Fvpi4FppRuJuh_mjd-42" target="1F8Fvpi4FppRuJuh_mjd-73">
          <mxGeometry relative="1" as="geometry" />
        </mxCell>
        <mxCell id="1F8Fvpi4FppRuJuh_mjd-204" style="edgeStyle=orthogonalEdgeStyle;rounded=0;orthogonalLoop=1;jettySize=auto;html=1;exitX=1;exitY=0.5;exitDx=0;exitDy=0;entryX=0;entryY=0.5;entryDx=0;entryDy=0;" edge="1" parent="1" source="1F8Fvpi4FppRuJuh_mjd-42" target="1F8Fvpi4FppRuJuh_mjd-109">
          <mxGeometry relative="1" as="geometry" />
        </mxCell>
        <mxCell id="1F8Fvpi4FppRuJuh_mjd-42" value="Value" style="rounded=0;whiteSpace=wrap;html=1;" vertex="1" parent="1">
          <mxGeometry x="4060" y="360" width="120" height="80" as="geometry" />
        </mxCell>
        <mxCell id="1F8Fvpi4FppRuJuh_mjd-87" style="edgeStyle=orthogonalEdgeStyle;rounded=0;orthogonalLoop=1;jettySize=auto;html=1;exitX=1;exitY=0.5;exitDx=0;exitDy=0;entryX=0.5;entryY=0;entryDx=0;entryDy=0;" edge="1" parent="1" source="1F8Fvpi4FppRuJuh_mjd-61" target="1F8Fvpi4FppRuJuh_mjd-82">
          <mxGeometry relative="1" as="geometry" />
        </mxCell>
        <mxCell id="1F8Fvpi4FppRuJuh_mjd-61" value="Users" style="whiteSpace=wrap;html=1;aspect=fixed;" vertex="1" parent="1">
          <mxGeometry x="3600" y="-1000" width="80" height="80" as="geometry" />
        </mxCell>
        <mxCell id="1F8Fvpi4FppRuJuh_mjd-62" value="Portfolios" style="whiteSpace=wrap;html=1;aspect=fixed;" vertex="1" parent="1">
          <mxGeometry x="3750" y="-840" width="80" height="80" as="geometry" />
        </mxCell>
        <mxCell id="1F8Fvpi4FppRuJuh_mjd-63" value="Portfolio&lt;div&gt;History&lt;/div&gt;" style="whiteSpace=wrap;html=1;aspect=fixed;" vertex="1" parent="1">
          <mxGeometry x="3630" y="-840" width="80" height="80" as="geometry" />
        </mxCell>
        <mxCell id="1F8Fvpi4FppRuJuh_mjd-64" value="Currency" style="whiteSpace=wrap;html=1;aspect=fixed;" vertex="1" parent="1">
          <mxGeometry x="2640" y="-480" width="80" height="80" as="geometry" />
        </mxCell>
        <mxCell id="1F8Fvpi4FppRuJuh_mjd-65" value="Currency&lt;div&gt;History&lt;/div&gt;" style="whiteSpace=wrap;html=1;aspect=fixed;" vertex="1" parent="1">
          <mxGeometry x="2640" y="-640" width="80" height="80" as="geometry" />
        </mxCell>
        <mxCell id="1F8Fvpi4FppRuJuh_mjd-66" style="edgeStyle=orthogonalEdgeStyle;rounded=0;orthogonalLoop=1;jettySize=auto;html=1;exitX=0.5;exitY=0;exitDx=0;exitDy=0;entryX=0.5;entryY=0;entryDx=0;entryDy=0;" edge="1" parent="1" source="1F8Fvpi4FppRuJuh_mjd-67" target="1F8Fvpi4FppRuJuh_mjd-61">
          <mxGeometry relative="1" as="geometry" />
        </mxCell>
        <mxCell id="1F8Fvpi4FppRuJuh_mjd-67" value="Last Login" style="rounded=0;whiteSpace=wrap;html=1;" vertex="1" parent="1">
          <mxGeometry x="4180" y="-860" width="120" height="60" as="geometry" />
        </mxCell>
        <mxCell id="1F8Fvpi4FppRuJuh_mjd-206" style="edgeStyle=orthogonalEdgeStyle;rounded=0;orthogonalLoop=1;jettySize=auto;html=1;exitX=0.5;exitY=1;exitDx=0;exitDy=0;entryX=0.5;entryY=0;entryDx=0;entryDy=0;" edge="1" parent="1" source="1F8Fvpi4FppRuJuh_mjd-69" target="1F8Fvpi4FppRuJuh_mjd-205">
          <mxGeometry relative="1" as="geometry" />
        </mxCell>
        <mxCell id="1F8Fvpi4FppRuJuh_mjd-69" value="CurrencyUpdater" style="ellipse;whiteSpace=wrap;html=1;" vertex="1" parent="1">
          <mxGeometry x="3000" y="-380" width="160" height="120" as="geometry" />
        </mxCell>
        <mxCell id="1F8Fvpi4FppRuJuh_mjd-71" style="edgeStyle=orthogonalEdgeStyle;rounded=0;orthogonalLoop=1;jettySize=auto;html=1;exitX=0;exitY=0.5;exitDx=0;exitDy=0;entryX=1;entryY=0.5;entryDx=0;entryDy=0;" edge="1" parent="1" source="1F8Fvpi4FppRuJuh_mjd-72" target="1F8Fvpi4FppRuJuh_mjd-75">
          <mxGeometry relative="1" as="geometry" />
        </mxCell>
        <mxCell id="1F8Fvpi4FppRuJuh_mjd-162" style="edgeStyle=orthogonalEdgeStyle;rounded=0;orthogonalLoop=1;jettySize=auto;html=1;exitX=0.5;exitY=1;exitDx=0;exitDy=0;entryX=0.5;entryY=0;entryDx=0;entryDy=0;" edge="1" parent="1" source="1F8Fvpi4FppRuJuh_mjd-72" target="1F8Fvpi4FppRuJuh_mjd-69">
          <mxGeometry relative="1" as="geometry">
            <mxPoint x="3280" y="-410" as="targetPoint" />
          </mxGeometry>
        </mxCell>
        <mxCell id="1F8Fvpi4FppRuJuh_mjd-72" value="CurrencyService" style="ellipse;whiteSpace=wrap;html=1;" vertex="1" parent="1">
          <mxGeometry x="3000" y="-580" width="160" height="120" as="geometry" />
        </mxCell>
        <mxCell id="1F8Fvpi4FppRuJuh_mjd-185" style="edgeStyle=orthogonalEdgeStyle;rounded=0;orthogonalLoop=1;jettySize=auto;html=1;exitX=0;exitY=1;exitDx=0;exitDy=0;entryX=0.25;entryY=0;entryDx=0;entryDy=0;" edge="1" parent="1" source="1F8Fvpi4FppRuJuh_mjd-73" target="1F8Fvpi4FppRuJuh_mjd-42">
          <mxGeometry relative="1" as="geometry" />
        </mxCell>
        <mxCell id="1F8Fvpi4FppRuJuh_mjd-73" value="Supported Currency" style="ellipse;whiteSpace=wrap;html=1;" vertex="1" parent="1">
          <mxGeometry x="4040" y="140" width="160" height="120" as="geometry" />
        </mxCell>
        <mxCell id="1F8Fvpi4FppRuJuh_mjd-74" style="edgeStyle=orthogonalEdgeStyle;rounded=0;orthogonalLoop=1;jettySize=auto;html=1;exitX=0.5;exitY=1;exitDx=0;exitDy=0;entryX=1;entryY=0.5;entryDx=0;entryDy=0;" edge="1" parent="1" source="1F8Fvpi4FppRuJuh_mjd-75" target="1F8Fvpi4FppRuJuh_mjd-64">
          <mxGeometry relative="1" as="geometry" />
        </mxCell>
        <mxCell id="1F8Fvpi4FppRuJuh_mjd-75" value="CurrencyRepository" style="ellipse;whiteSpace=wrap;html=1;" vertex="1" parent="1">
          <mxGeometry x="2760" y="-580" width="160" height="120" as="geometry" />
        </mxCell>
        <mxCell id="1F8Fvpi4FppRuJuh_mjd-76" style="edgeStyle=orthogonalEdgeStyle;rounded=0;orthogonalLoop=1;jettySize=auto;html=1;exitX=0.5;exitY=0;exitDx=0;exitDy=0;entryX=1.055;entryY=0.501;entryDx=0;entryDy=0;entryPerimeter=0;" edge="1" parent="1" source="1F8Fvpi4FppRuJuh_mjd-75" target="1F8Fvpi4FppRuJuh_mjd-65">
          <mxGeometry relative="1" as="geometry" />
        </mxCell>
        <mxCell id="1F8Fvpi4FppRuJuh_mjd-209" style="edgeStyle=orthogonalEdgeStyle;rounded=0;orthogonalLoop=1;jettySize=auto;html=1;exitX=1;exitY=0.5;exitDx=0;exitDy=0;entryX=0;entryY=0.5;entryDx=0;entryDy=0;" edge="1" parent="1" source="1F8Fvpi4FppRuJuh_mjd-78" target="1F8Fvpi4FppRuJuh_mjd-27">
          <mxGeometry relative="1" as="geometry" />
        </mxCell>
        <mxCell id="1F8Fvpi4FppRuJuh_mjd-78" value="PortfolioService" style="ellipse;whiteSpace=wrap;html=1;" vertex="1" parent="1">
          <mxGeometry x="3400" y="-700" width="160" height="120" as="geometry" />
        </mxCell>
        <mxCell id="1F8Fvpi4FppRuJuh_mjd-79" value="" style="group" vertex="1" connectable="0" parent="1">
          <mxGeometry x="3970" y="-890" width="180" height="120" as="geometry" />
        </mxCell>
        <mxCell id="1F8Fvpi4FppRuJuh_mjd-80" value="" style="ellipse;whiteSpace=wrap;html=1;" vertex="1" parent="1F8Fvpi4FppRuJuh_mjd-79">
          <mxGeometry x="20" width="160" height="120" as="geometry" />
        </mxCell>
        <mxCell id="1F8Fvpi4FppRuJuh_mjd-81" value="" style="ellipse;whiteSpace=wrap;html=1;" vertex="1" parent="1F8Fvpi4FppRuJuh_mjd-79">
          <mxGeometry x="10" width="160" height="120" as="geometry" />
        </mxCell>
        <mxCell id="1F8Fvpi4FppRuJuh_mjd-82" value="Multiple Users" style="ellipse;whiteSpace=wrap;html=1;" vertex="1" parent="1F8Fvpi4FppRuJuh_mjd-79">
          <mxGeometry width="160" height="120" as="geometry" />
        </mxCell>
        <mxCell id="1F8Fvpi4FppRuJuh_mjd-83" value="" style="group" vertex="1" connectable="0" parent="1">
          <mxGeometry x="3880" y="-700" width="180" height="120" as="geometry" />
        </mxCell>
        <mxCell id="1F8Fvpi4FppRuJuh_mjd-84" value="" style="ellipse;whiteSpace=wrap;html=1;" vertex="1" parent="1F8Fvpi4FppRuJuh_mjd-83">
          <mxGeometry x="20" width="160" height="120" as="geometry" />
        </mxCell>
        <mxCell id="1F8Fvpi4FppRuJuh_mjd-85" value="" style="ellipse;whiteSpace=wrap;html=1;" vertex="1" parent="1F8Fvpi4FppRuJuh_mjd-83">
          <mxGeometry x="10" width="160" height="120" as="geometry" />
        </mxCell>
        <mxCell id="1F8Fvpi4FppRuJuh_mjd-86" value="AllUsersPortfolios" style="ellipse;whiteSpace=wrap;html=1;" vertex="1" parent="1F8Fvpi4FppRuJuh_mjd-83">
          <mxGeometry width="160" height="120" as="geometry" />
        </mxCell>
        <mxCell id="1F8Fvpi4FppRuJuh_mjd-89" style="edgeStyle=orthogonalEdgeStyle;rounded=0;orthogonalLoop=1;jettySize=auto;html=1;exitX=1;exitY=0.5;exitDx=0;exitDy=0;" edge="1" parent="1" source="1F8Fvpi4FppRuJuh_mjd-80" target="1F8Fvpi4FppRuJuh_mjd-67">
          <mxGeometry relative="1" as="geometry" />
        </mxCell>
        <mxCell id="1F8Fvpi4FppRuJuh_mjd-91" value="" style="group" vertex="1" connectable="0" parent="1">
          <mxGeometry x="4130" y="-700" width="180" height="120" as="geometry" />
        </mxCell>
        <mxCell id="1F8Fvpi4FppRuJuh_mjd-92" value="" style="ellipse;whiteSpace=wrap;html=1;" vertex="1" parent="1F8Fvpi4FppRuJuh_mjd-91">
          <mxGeometry x="20" width="160" height="120" as="geometry" />
        </mxCell>
        <mxCell id="1F8Fvpi4FppRuJuh_mjd-93" value="" style="ellipse;whiteSpace=wrap;html=1;" vertex="1" parent="1F8Fvpi4FppRuJuh_mjd-91">
          <mxGeometry x="10" width="160" height="120" as="geometry" />
        </mxCell>
        <mxCell id="1F8Fvpi4FppRuJuh_mjd-94" value="Traders" style="ellipse;whiteSpace=wrap;html=1;" vertex="1" parent="1F8Fvpi4FppRuJuh_mjd-91">
          <mxGeometry width="160" height="120" as="geometry" />
        </mxCell>
        <mxCell id="1F8Fvpi4FppRuJuh_mjd-98" style="edgeStyle=orthogonalEdgeStyle;rounded=0;orthogonalLoop=1;jettySize=auto;html=1;exitX=0.5;exitY=1;exitDx=0;exitDy=0;entryX=0.5;entryY=0;entryDx=0;entryDy=0;" edge="1" parent="1" source="1F8Fvpi4FppRuJuh_mjd-94" target="1F8Fvpi4FppRuJuh_mjd-29">
          <mxGeometry relative="1" as="geometry" />
        </mxCell>
        <mxCell id="1F8Fvpi4FppRuJuh_mjd-194" style="edgeStyle=orthogonalEdgeStyle;rounded=0;orthogonalLoop=1;jettySize=auto;html=1;exitX=1;exitY=0.5;exitDx=0;exitDy=0;entryX=0;entryY=0.5;entryDx=0;entryDy=0;" edge="1" parent="1" source="1F8Fvpi4FppRuJuh_mjd-104" target="1F8Fvpi4FppRuJuh_mjd-112">
          <mxGeometry relative="1" as="geometry" />
        </mxCell>
        <mxCell id="1F8Fvpi4FppRuJuh_mjd-195" style="edgeStyle=orthogonalEdgeStyle;rounded=0;orthogonalLoop=1;jettySize=auto;html=1;exitX=1;exitY=0.5;exitDx=0;exitDy=0;entryX=0;entryY=0.5;entryDx=0;entryDy=0;" edge="1" parent="1" source="1F8Fvpi4FppRuJuh_mjd-104" target="1F8Fvpi4FppRuJuh_mjd-111">
          <mxGeometry relative="1" as="geometry" />
        </mxCell>
        <mxCell id="1F8Fvpi4FppRuJuh_mjd-196" style="edgeStyle=orthogonalEdgeStyle;rounded=0;orthogonalLoop=1;jettySize=auto;html=1;exitX=1;exitY=0.5;exitDx=0;exitDy=0;entryX=0;entryY=0.5;entryDx=0;entryDy=0;" edge="1" parent="1" source="1F8Fvpi4FppRuJuh_mjd-104" target="1F8Fvpi4FppRuJuh_mjd-110">
          <mxGeometry relative="1" as="geometry" />
        </mxCell>
        <mxCell id="1F8Fvpi4FppRuJuh_mjd-197" style="edgeStyle=orthogonalEdgeStyle;rounded=0;orthogonalLoop=1;jettySize=auto;html=1;exitX=1;exitY=0.5;exitDx=0;exitDy=0;entryX=0;entryY=0.5;entryDx=0;entryDy=0;" edge="1" parent="1" source="1F8Fvpi4FppRuJuh_mjd-104" target="1F8Fvpi4FppRuJuh_mjd-109">
          <mxGeometry relative="1" as="geometry" />
        </mxCell>
        <mxCell id="1F8Fvpi4FppRuJuh_mjd-104" value="Buy" style="shape=hexagon;perimeter=hexagonPerimeter2;whiteSpace=wrap;html=1;fixedSize=1;" vertex="1" parent="1">
          <mxGeometry x="5160" y="120" width="120" height="80" as="geometry" />
        </mxCell>
        <mxCell id="1F8Fvpi4FppRuJuh_mjd-198" style="edgeStyle=orthogonalEdgeStyle;rounded=0;orthogonalLoop=1;jettySize=auto;html=1;exitX=1;exitY=0.5;exitDx=0;exitDy=0;entryX=0;entryY=0.5;entryDx=0;entryDy=0;" edge="1" parent="1" source="1F8Fvpi4FppRuJuh_mjd-108" target="1F8Fvpi4FppRuJuh_mjd-109">
          <mxGeometry relative="1" as="geometry" />
        </mxCell>
        <mxCell id="1F8Fvpi4FppRuJuh_mjd-200" style="edgeStyle=orthogonalEdgeStyle;rounded=0;orthogonalLoop=1;jettySize=auto;html=1;exitX=1;exitY=0.5;exitDx=0;exitDy=0;entryX=0;entryY=0.5;entryDx=0;entryDy=0;" edge="1" parent="1" source="1F8Fvpi4FppRuJuh_mjd-108" target="1F8Fvpi4FppRuJuh_mjd-111">
          <mxGeometry relative="1" as="geometry" />
        </mxCell>
        <mxCell id="1F8Fvpi4FppRuJuh_mjd-201" style="edgeStyle=orthogonalEdgeStyle;rounded=0;orthogonalLoop=1;jettySize=auto;html=1;exitX=1;exitY=0.5;exitDx=0;exitDy=0;entryX=0;entryY=0.5;entryDx=0;entryDy=0;" edge="1" parent="1" source="1F8Fvpi4FppRuJuh_mjd-108" target="1F8Fvpi4FppRuJuh_mjd-112">
          <mxGeometry relative="1" as="geometry" />
        </mxCell>
        <mxCell id="1F8Fvpi4FppRuJuh_mjd-108" value="Sell" style="shape=hexagon;perimeter=hexagonPerimeter2;whiteSpace=wrap;html=1;fixedSize=1;" vertex="1" parent="1">
          <mxGeometry x="5160" y="240" width="120" height="80" as="geometry" />
        </mxCell>
        <mxCell id="1F8Fvpi4FppRuJuh_mjd-109" value="Total Value" style="rounded=0;whiteSpace=wrap;html=1;" vertex="1" parent="1">
          <mxGeometry x="5360" y="330" width="120" height="60" as="geometry" />
        </mxCell>
        <mxCell id="1F8Fvpi4FppRuJuh_mjd-110" value="Shares" style="rounded=0;whiteSpace=wrap;html=1;" vertex="1" parent="1">
          <mxGeometry x="5360" y="230" width="120" height="60" as="geometry" />
        </mxCell>
        <mxCell id="1F8Fvpi4FppRuJuh_mjd-111" value="Target Price" style="rounded=0;whiteSpace=wrap;html=1;" vertex="1" parent="1">
          <mxGeometry x="5360" y="130" width="120" height="60" as="geometry" />
        </mxCell>
        <mxCell id="1F8Fvpi4FppRuJuh_mjd-112" value="Wallet Dollars" style="rounded=0;whiteSpace=wrap;html=1;" vertex="1" parent="1">
          <mxGeometry x="5360" y="40" width="120" height="60" as="geometry" />
        </mxCell>
        <mxCell id="1F8Fvpi4FppRuJuh_mjd-121" style="edgeStyle=orthogonalEdgeStyle;rounded=0;orthogonalLoop=1;jettySize=auto;html=1;exitX=1;exitY=0.5;exitDx=0;exitDy=0;entryX=0;entryY=0.5;entryDx=0;entryDy=0;" edge="1" parent="1" source="1F8Fvpi4FppRuJuh_mjd-115" target="1F8Fvpi4FppRuJuh_mjd-120">
          <mxGeometry relative="1" as="geometry" />
        </mxCell>
        <mxCell id="1F8Fvpi4FppRuJuh_mjd-115" value="StartTraders" style="shape=hexagon;perimeter=hexagonPerimeter2;whiteSpace=wrap;html=1;fixedSize=1;" vertex="1" parent="1">
          <mxGeometry x="3820" y="-420" width="120" height="80" as="geometry" />
        </mxCell>
        <mxCell id="1F8Fvpi4FppRuJuh_mjd-117" value="" style="group" vertex="1" connectable="0" parent="1">
          <mxGeometry x="4020" y="-440" width="180" height="120" as="geometry" />
        </mxCell>
        <mxCell id="1F8Fvpi4FppRuJuh_mjd-118" value="" style="ellipse;whiteSpace=wrap;html=1;" vertex="1" parent="1F8Fvpi4FppRuJuh_mjd-117">
          <mxGeometry x="20" width="160" height="120" as="geometry" />
        </mxCell>
        <mxCell id="1F8Fvpi4FppRuJuh_mjd-119" value="" style="ellipse;whiteSpace=wrap;html=1;" vertex="1" parent="1F8Fvpi4FppRuJuh_mjd-117">
          <mxGeometry x="10" width="160" height="120" as="geometry" />
        </mxCell>
        <mxCell id="1F8Fvpi4FppRuJuh_mjd-120" value="Traders" style="ellipse;whiteSpace=wrap;html=1;" vertex="1" parent="1F8Fvpi4FppRuJuh_mjd-117">
          <mxGeometry width="160" height="120" as="geometry" />
        </mxCell>
        <mxCell id="1F8Fvpi4FppRuJuh_mjd-122" value="" style="group" vertex="1" connectable="0" parent="1">
          <mxGeometry x="4280" y="-440" width="180" height="120" as="geometry" />
        </mxCell>
        <mxCell id="1F8Fvpi4FppRuJuh_mjd-123" value="" style="ellipse;whiteSpace=wrap;html=1;" vertex="1" parent="1F8Fvpi4FppRuJuh_mjd-122">
          <mxGeometry x="20" width="160" height="120" as="geometry" />
        </mxCell>
        <mxCell id="1F8Fvpi4FppRuJuh_mjd-124" value="" style="ellipse;whiteSpace=wrap;html=1;" vertex="1" parent="1F8Fvpi4FppRuJuh_mjd-122">
          <mxGeometry x="10" width="160" height="120" as="geometry" />
        </mxCell>
        <mxCell id="1F8Fvpi4FppRuJuh_mjd-125" value="TraderThreads" style="ellipse;whiteSpace=wrap;html=1;" vertex="1" parent="1F8Fvpi4FppRuJuh_mjd-122">
          <mxGeometry width="160" height="120" as="geometry" />
        </mxCell>
        <mxCell id="1F8Fvpi4FppRuJuh_mjd-126" style="edgeStyle=orthogonalEdgeStyle;rounded=0;orthogonalLoop=1;jettySize=auto;html=1;exitX=1;exitY=0.5;exitDx=0;exitDy=0;" edge="1" parent="1" source="1F8Fvpi4FppRuJuh_mjd-118" target="1F8Fvpi4FppRuJuh_mjd-125">
          <mxGeometry relative="1" as="geometry" />
        </mxCell>
        <mxCell id="1F8Fvpi4FppRuJuh_mjd-127" value="" style="group" vertex="1" connectable="0" parent="1">
          <mxGeometry x="4520" y="-440" width="180" height="120" as="geometry" />
        </mxCell>
        <mxCell id="1F8Fvpi4FppRuJuh_mjd-130" value="ThreadManager" style="ellipse;whiteSpace=wrap;html=1;" vertex="1" parent="1F8Fvpi4FppRuJuh_mjd-127">
          <mxGeometry width="160" height="120" as="geometry" />
        </mxCell>
        <mxCell id="1F8Fvpi4FppRuJuh_mjd-135" style="edgeStyle=orthogonalEdgeStyle;rounded=0;orthogonalLoop=1;jettySize=auto;html=1;exitX=0;exitY=0.5;exitDx=0;exitDy=0;entryX=0.5;entryY=1;entryDx=0;entryDy=0;" edge="1" parent="1" source="1F8Fvpi4FppRuJuh_mjd-131" target="1F8Fvpi4FppRuJuh_mjd-125">
          <mxGeometry relative="1" as="geometry" />
        </mxCell>
        <mxCell id="1F8Fvpi4FppRuJuh_mjd-131" value="Start Threads" style="shape=hexagon;perimeter=hexagonPerimeter2;whiteSpace=wrap;html=1;fixedSize=1;" vertex="1" parent="1">
          <mxGeometry x="4540" y="-280" width="120" height="80" as="geometry" />
        </mxCell>
        <mxCell id="1F8Fvpi4FppRuJuh_mjd-133" style="edgeStyle=orthogonalEdgeStyle;rounded=0;orthogonalLoop=1;jettySize=auto;html=1;exitX=0.5;exitY=1;exitDx=0;exitDy=0;entryX=0.5;entryY=0;entryDx=0;entryDy=0;" edge="1" parent="1" source="1F8Fvpi4FppRuJuh_mjd-130" target="1F8Fvpi4FppRuJuh_mjd-131">
          <mxGeometry relative="1" as="geometry" />
        </mxCell>
        <mxCell id="1F8Fvpi4FppRuJuh_mjd-134" style="edgeStyle=orthogonalEdgeStyle;rounded=0;orthogonalLoop=1;jettySize=auto;html=1;exitX=1;exitY=0.5;exitDx=0;exitDy=0;entryX=0;entryY=0.5;entryDx=0;entryDy=0;" edge="1" parent="1" source="1F8Fvpi4FppRuJuh_mjd-123" target="1F8Fvpi4FppRuJuh_mjd-130">
          <mxGeometry relative="1" as="geometry" />
        </mxCell>
        <mxCell id="1F8Fvpi4FppRuJuh_mjd-141" style="edgeStyle=orthogonalEdgeStyle;rounded=0;orthogonalLoop=1;jettySize=auto;html=1;exitX=0.5;exitY=1;exitDx=0;exitDy=0;entryX=0.5;entryY=0;entryDx=0;entryDy=0;" edge="1" parent="1" source="1F8Fvpi4FppRuJuh_mjd-125" target="1F8Fvpi4FppRuJuh_mjd-142">
          <mxGeometry relative="1" as="geometry">
            <mxPoint x="4360" y="-160" as="targetPoint" />
          </mxGeometry>
        </mxCell>
        <mxCell id="1F8Fvpi4FppRuJuh_mjd-164" style="edgeStyle=orthogonalEdgeStyle;rounded=0;orthogonalLoop=1;jettySize=auto;html=1;exitX=0.5;exitY=1;exitDx=0;exitDy=0;entryX=0.5;entryY=0;entryDx=0;entryDy=0;" edge="1" parent="1" source="1F8Fvpi4FppRuJuh_mjd-142" target="1F8Fvpi4FppRuJuh_mjd-163">
          <mxGeometry relative="1" as="geometry" />
        </mxCell>
        <mxCell id="1F8Fvpi4FppRuJuh_mjd-142" value="Trade All Assets" style="shape=hexagon;perimeter=hexagonPerimeter2;whiteSpace=wrap;html=1;fixedSize=1;" vertex="1" parent="1">
          <mxGeometry x="4300" y="-160" width="120" height="80" as="geometry" />
        </mxCell>
        <mxCell id="1F8Fvpi4FppRuJuh_mjd-143" value="" style="group" vertex="1" connectable="0" parent="1">
          <mxGeometry x="4280" y="160" width="180" height="120" as="geometry" />
        </mxCell>
        <mxCell id="1F8Fvpi4FppRuJuh_mjd-144" value="" style="ellipse;whiteSpace=wrap;html=1;" vertex="1" parent="1F8Fvpi4FppRuJuh_mjd-143">
          <mxGeometry x="20" width="160" height="120" as="geometry" />
        </mxCell>
        <mxCell id="1F8Fvpi4FppRuJuh_mjd-145" value="" style="ellipse;whiteSpace=wrap;html=1;" vertex="1" parent="1F8Fvpi4FppRuJuh_mjd-143">
          <mxGeometry x="10" width="160" height="120" as="geometry" />
        </mxCell>
        <mxCell id="1F8Fvpi4FppRuJuh_mjd-146" value="AssetTraders" style="ellipse;whiteSpace=wrap;html=1;" vertex="1" parent="1F8Fvpi4FppRuJuh_mjd-143">
          <mxGeometry width="160" height="120" as="geometry" />
        </mxCell>
        <mxCell id="1F8Fvpi4FppRuJuh_mjd-155" style="edgeStyle=orthogonalEdgeStyle;rounded=0;orthogonalLoop=1;jettySize=auto;html=1;exitX=1;exitY=0.5;exitDx=0;exitDy=0;entryX=0;entryY=0.5;entryDx=0;entryDy=0;" edge="1" parent="1" source="1F8Fvpi4FppRuJuh_mjd-148" target="1F8Fvpi4FppRuJuh_mjd-154">
          <mxGeometry relative="1" as="geometry" />
        </mxCell>
        <mxCell id="1F8Fvpi4FppRuJuh_mjd-148" value="for each" style="ellipse;whiteSpace=wrap;html=1;aspect=fixed;" vertex="1" parent="1">
          <mxGeometry x="4540" y="180" width="80" height="80" as="geometry" />
        </mxCell>
        <mxCell id="1F8Fvpi4FppRuJuh_mjd-152" style="edgeStyle=orthogonalEdgeStyle;rounded=0;orthogonalLoop=1;jettySize=auto;html=1;exitX=1;exitY=0.5;exitDx=0;exitDy=0;entryX=0;entryY=0.5;entryDx=0;entryDy=0;" edge="1" parent="1" source="1F8Fvpi4FppRuJuh_mjd-150" target="1F8Fvpi4FppRuJuh_mjd-104">
          <mxGeometry relative="1" as="geometry" />
        </mxCell>
        <mxCell id="1F8Fvpi4FppRuJuh_mjd-193" style="edgeStyle=orthogonalEdgeStyle;rounded=0;orthogonalLoop=1;jettySize=auto;html=1;exitX=1;exitY=0.5;exitDx=0;exitDy=0;entryX=0;entryY=0.5;entryDx=0;entryDy=0;" edge="1" parent="1" source="1F8Fvpi4FppRuJuh_mjd-150" target="1F8Fvpi4FppRuJuh_mjd-108">
          <mxGeometry relative="1" as="geometry" />
        </mxCell>
        <mxCell id="1F8Fvpi4FppRuJuh_mjd-150" value="Trade" style="shape=hexagon;perimeter=hexagonPerimeter2;whiteSpace=wrap;html=1;fixedSize=1;" vertex="1" parent="1">
          <mxGeometry x="4940" y="180" width="120" height="80" as="geometry" />
        </mxCell>
        <mxCell id="1F8Fvpi4FppRuJuh_mjd-156" style="edgeStyle=orthogonalEdgeStyle;rounded=0;orthogonalLoop=1;jettySize=auto;html=1;exitX=1;exitY=0.5;exitDx=0;exitDy=0;entryX=0;entryY=0.5;entryDx=0;entryDy=0;" edge="1" parent="1" source="1F8Fvpi4FppRuJuh_mjd-154" target="1F8Fvpi4FppRuJuh_mjd-150">
          <mxGeometry relative="1" as="geometry" />
        </mxCell>
        <mxCell id="1F8Fvpi4FppRuJuh_mjd-154" value="PortfolioAsset" style="ellipse;whiteSpace=wrap;html=1;" vertex="1" parent="1">
          <mxGeometry x="4700" y="160" width="160" height="120" as="geometry" />
        </mxCell>
        <mxCell id="1F8Fvpi4FppRuJuh_mjd-167" style="edgeStyle=orthogonalEdgeStyle;rounded=0;orthogonalLoop=1;jettySize=auto;html=1;exitX=1;exitY=0.5;exitDx=0;exitDy=0;" edge="1" parent="1" source="1F8Fvpi4FppRuJuh_mjd-157" target="1F8Fvpi4FppRuJuh_mjd-166">
          <mxGeometry relative="1" as="geometry" />
        </mxCell>
        <mxCell id="1F8Fvpi4FppRuJuh_mjd-157" value="UpdateValue" style="shape=hexagon;perimeter=hexagonPerimeter2;whiteSpace=wrap;html=1;fixedSize=1;" vertex="1" parent="1">
          <mxGeometry x="3900" y="-20" width="120" height="80" as="geometry" />
        </mxCell>
        <mxCell id="1F8Fvpi4FppRuJuh_mjd-165" style="edgeStyle=orthogonalEdgeStyle;rounded=0;orthogonalLoop=1;jettySize=auto;html=1;exitX=0.5;exitY=1;exitDx=0;exitDy=0;entryX=0.5;entryY=0;entryDx=0;entryDy=0;" edge="1" parent="1" source="1F8Fvpi4FppRuJuh_mjd-163" target="1F8Fvpi4FppRuJuh_mjd-146">
          <mxGeometry relative="1" as="geometry" />
        </mxCell>
        <mxCell id="1F8Fvpi4FppRuJuh_mjd-219" style="edgeStyle=orthogonalEdgeStyle;rounded=0;orthogonalLoop=1;jettySize=auto;html=1;exitX=1;exitY=0.5;exitDx=0;exitDy=0;entryX=0;entryY=0.5;entryDx=0;entryDy=0;" edge="1" parent="1" source="1F8Fvpi4FppRuJuh_mjd-163" target="1F8Fvpi4FppRuJuh_mjd-217">
          <mxGeometry relative="1" as="geometry" />
        </mxCell>
        <mxCell id="1F8Fvpi4FppRuJuh_mjd-163" value="infinite loop" style="ellipse;whiteSpace=wrap;html=1;aspect=fixed;" vertex="1" parent="1">
          <mxGeometry x="4320" width="80" height="80" as="geometry" />
        </mxCell>
        <mxCell id="1F8Fvpi4FppRuJuh_mjd-183" style="edgeStyle=orthogonalEdgeStyle;rounded=0;orthogonalLoop=1;jettySize=auto;html=1;exitX=0.5;exitY=1;exitDx=0;exitDy=0;entryX=0.5;entryY=0;entryDx=0;entryDy=0;" edge="1" parent="1" source="1F8Fvpi4FppRuJuh_mjd-166" target="1F8Fvpi4FppRuJuh_mjd-73">
          <mxGeometry relative="1" as="geometry" />
        </mxCell>
        <mxCell id="1F8Fvpi4FppRuJuh_mjd-166" value="infinite loop" style="ellipse;whiteSpace=wrap;html=1;aspect=fixed;" vertex="1" parent="1">
          <mxGeometry x="4080" y="-20" width="80" height="80" as="geometry" />
        </mxCell>
        <mxCell id="1F8Fvpi4FppRuJuh_mjd-169" value="" style="group" vertex="1" connectable="0" parent="1">
          <mxGeometry x="3000" y="-40" width="180" height="120" as="geometry" />
        </mxCell>
        <mxCell id="1F8Fvpi4FppRuJuh_mjd-172" value="ThreadManager" style="ellipse;whiteSpace=wrap;html=1;" vertex="1" parent="1F8Fvpi4FppRuJuh_mjd-169">
          <mxGeometry width="160" height="120" as="geometry" />
        </mxCell>
        <mxCell id="1F8Fvpi4FppRuJuh_mjd-174" value="" style="group" vertex="1" connectable="0" parent="1">
          <mxGeometry x="3240" y="-40" width="180" height="120" as="geometry" />
        </mxCell>
        <mxCell id="1F8Fvpi4FppRuJuh_mjd-175" value="" style="ellipse;whiteSpace=wrap;html=1;" vertex="1" parent="1F8Fvpi4FppRuJuh_mjd-174">
          <mxGeometry x="20" width="160" height="120" as="geometry" />
        </mxCell>
        <mxCell id="1F8Fvpi4FppRuJuh_mjd-176" value="" style="ellipse;whiteSpace=wrap;html=1;" vertex="1" parent="1F8Fvpi4FppRuJuh_mjd-174">
          <mxGeometry x="10" width="160" height="120" as="geometry" />
        </mxCell>
        <mxCell id="1F8Fvpi4FppRuJuh_mjd-177" value="CurrencyUpdaterThreads" style="ellipse;whiteSpace=wrap;html=1;" vertex="1" parent="1F8Fvpi4FppRuJuh_mjd-174">
          <mxGeometry width="160" height="120" as="geometry" />
        </mxCell>
        <mxCell id="1F8Fvpi4FppRuJuh_mjd-178" style="edgeStyle=orthogonalEdgeStyle;rounded=0;orthogonalLoop=1;jettySize=auto;html=1;exitX=1;exitY=0.5;exitDx=0;exitDy=0;entryX=0;entryY=0.5;entryDx=0;entryDy=0;" edge="1" parent="1" source="1F8Fvpi4FppRuJuh_mjd-172" target="1F8Fvpi4FppRuJuh_mjd-177">
          <mxGeometry relative="1" as="geometry" />
        </mxCell>
        <mxCell id="1F8Fvpi4FppRuJuh_mjd-182" style="edgeStyle=orthogonalEdgeStyle;rounded=0;orthogonalLoop=1;jettySize=auto;html=1;exitX=1;exitY=0.5;exitDx=0;exitDy=0;entryX=0;entryY=0.5;entryDx=0;entryDy=0;" edge="1" parent="1" source="1F8Fvpi4FppRuJuh_mjd-180" target="1F8Fvpi4FppRuJuh_mjd-41">
          <mxGeometry relative="1" as="geometry" />
        </mxCell>
        <mxCell id="1F8Fvpi4FppRuJuh_mjd-180" value="for each" style="ellipse;whiteSpace=wrap;html=1;aspect=fixed;" vertex="1" parent="1">
          <mxGeometry x="3500" y="-20" width="80" height="80" as="geometry" />
        </mxCell>
        <mxCell id="1F8Fvpi4FppRuJuh_mjd-181" style="edgeStyle=orthogonalEdgeStyle;rounded=0;orthogonalLoop=1;jettySize=auto;html=1;exitX=1;exitY=0.5;exitDx=0;exitDy=0;entryX=0;entryY=0.5;entryDx=0;entryDy=0;" edge="1" parent="1" source="1F8Fvpi4FppRuJuh_mjd-175" target="1F8Fvpi4FppRuJuh_mjd-180">
          <mxGeometry relative="1" as="geometry" />
        </mxCell>
        <mxCell id="1F8Fvpi4FppRuJuh_mjd-207" style="edgeStyle=orthogonalEdgeStyle;rounded=0;orthogonalLoop=1;jettySize=auto;html=1;exitX=0.5;exitY=1;exitDx=0;exitDy=0;entryX=0.5;entryY=0;entryDx=0;entryDy=0;" edge="1" parent="1" source="1F8Fvpi4FppRuJuh_mjd-205" target="1F8Fvpi4FppRuJuh_mjd-172">
          <mxGeometry relative="1" as="geometry" />
        </mxCell>
        <mxCell id="1F8Fvpi4FppRuJuh_mjd-205" value="&lt;font style=&quot;font-size: 11px;&quot;&gt;StartCurrencyUpdater&lt;/font&gt;" style="shape=hexagon;perimeter=hexagonPerimeter2;whiteSpace=wrap;html=1;fixedSize=1;" vertex="1" parent="1">
          <mxGeometry x="3020" y="-200" width="120" height="80" as="geometry" />
        </mxCell>
        <mxCell id="1F8Fvpi4FppRuJuh_mjd-211" style="edgeStyle=orthogonalEdgeStyle;rounded=0;orthogonalLoop=1;jettySize=auto;html=1;exitX=1;exitY=0.5;exitDx=0;exitDy=0;entryX=0;entryY=0.5;entryDx=0;entryDy=0;" edge="1" parent="1" source="1F8Fvpi4FppRuJuh_mjd-84" target="1F8Fvpi4FppRuJuh_mjd-94">
          <mxGeometry relative="1" as="geometry" />
        </mxCell>
        <mxCell id="1F8Fvpi4FppRuJuh_mjd-216" style="edgeStyle=orthogonalEdgeStyle;rounded=0;orthogonalLoop=1;jettySize=auto;html=1;exitX=1;exitY=0.5;exitDx=0;exitDy=0;entryX=0;entryY=0.5;entryDx=0;entryDy=0;" edge="1" parent="1" source="1F8Fvpi4FppRuJuh_mjd-144" target="1F8Fvpi4FppRuJuh_mjd-148">
          <mxGeometry relative="1" as="geometry" />
        </mxCell>
        <mxCell id="1F8Fvpi4FppRuJuh_mjd-222" style="edgeStyle=orthogonalEdgeStyle;rounded=0;orthogonalLoop=1;jettySize=auto;html=1;exitX=1;exitY=0.5;exitDx=0;exitDy=0;entryX=0;entryY=0.5;entryDx=0;entryDy=0;" edge="1" parent="1" source="1F8Fvpi4FppRuJuh_mjd-217" target="1F8Fvpi4FppRuJuh_mjd-221">
          <mxGeometry relative="1" as="geometry" />
        </mxCell>
        <mxCell id="1F8Fvpi4FppRuJuh_mjd-217" value="Portfolio" style="ellipse;whiteSpace=wrap;html=1;" vertex="1" parent="1">
          <mxGeometry x="4480" y="-20" width="160" height="120" as="geometry" />
        </mxCell>
        <mxCell id="1F8Fvpi4FppRuJuh_mjd-221" value="UpdateValues" style="shape=hexagon;perimeter=hexagonPerimeter2;whiteSpace=wrap;html=1;fixedSize=1;" vertex="1" parent="1">
          <mxGeometry x="4720" width="120" height="80" as="geometry" />
        </mxCell>
      </root>
    </mxGraphModel>
  </diagram>
</mxfile>
